<?xml version="1.0" standalone="no"?>
<!DOCTYPE svg PUBLIC "-//W3C//DTD SVG 20010904//EN"
 "http://www.w3.org/TR/2001/REC-SVG-20010904/DTD/svg10.dtd">
<svg version="1.0" xmlns="http://www.w3.org/2000/svg"
 width="256.000000pt" height="256.000000pt" viewBox="0 0 256.000000 256.000000"
 preserveAspectRatio="xMidYMid meet">
<metadata>
Created by potrace 1.11, written by Peter Selinger 2001-2013
</metadata>
<g transform="translate(0.000000,256.000000) scale(0.100000,-0.100000)"
fill="#000000" stroke="none">
<path d="M0 1280 l0 -1280 1280 0 1280 0 0 1280 0 1280 -1280 0 -1280 0 0
-1280z m2320 0 l0 -1040 -390 0 -390 0 0 329 0 329 -260 0 -260 -1 0 -328 0
-329 -390 0 -390 0 0 1040 0 1040 1040 0 1040 0 0 -1040z"/>
<path d="M1149 2151 c-1 -3 -2 -58 -3 -121 l-1 -115 -110 -2 c-60 -1 -116 -2
-122 -2 -10 -1 -13 -35 -13 -135 l0 -133 114 0 c62 0 118 -3 123 -6 6 -4 9
-54 8 -118 -1 -90 1 -112 13 -117 12 -4 212 -7 250 -3 5 1 8 55 7 121 -2 104
0 120 14 121 9 0 64 1 124 1 l107 0 0 134 0 134 -119 0 c-86 0 -120 3 -123 13
-2 6 -4 62 -4 123 l1 111 -132 0 c-73 0 -134 -3 -134 -6z"/>
<path d="M499 1592 c0 -4 -1 -86 -1 -182 l-1 -175 97 -1 c90 -1 97 0 101 20 2
11 4 93 3 182 l-1 160 -99 1 c-54 1 -98 -2 -99 -5z"/>
<path d="M1863 1415 l0 -182 98 0 c55 0 99 3 100 6 1 8 1 322 0 343 -1 14 -14
16 -100 15 l-98 -1 0 -181z"/>
<path d="M528 742 c-16 -2 -28 -6 -29 -10 -4 -35 -3 -327 2 -340 6 -16 33 -18
180 -13 13 1 15 25 16 181 1 131 -2 180 -10 180 -7 1 -39 2 -72 3 -33 1 -72 1
-87 -1z"/>
<path d="M1870 740 c-4 -3 -7 -86 -6 -184 l1 -180 93 1 c51 1 96 4 100 7 3 4
6 85 6 181 l1 175 -30 1 c-16 0 -59 1 -93 2 -35 1 -67 0 -72 -3z"/>
</g>
</svg>
